<?xml version="1.0" encoding="utf-8"?>
<!-- Generator: Adobe Illustrator 15.0.0, SVG Export Plug-In . SVG Version: 6.00 Build 0)  -->
<!DOCTYPE svg PUBLIC "-//W3C//DTD SVG 1.1//EN" "http://www.w3.org/Graphics/SVG/1.1/DTD/svg11.dtd">
<svg version="1.1" id="Layer_1" xmlns="http://www.w3.org/2000/svg" xmlns:xlink="http://www.w3.org/1999/xlink" x="0px" y="0px"
	 width="256px" height="324px" viewBox="6.5 0 256 324" enable-background="new 6.5 0 256 324" xml:space="preserve">
<title>peep-44</title>
<desc>Created with Sketch.</desc>
<g id="Introduction">
	<g id="variations" transform="translate(-1566.000000, -434.000000)">
		<g id="images" transform="translate(126.000000, 110.000000)">
			<g id="a-person_x2F_bust" transform="translate(1440.000000, 324.000000)">
				<g id="body_x2F_Whatever" transform="translate(31.056338, 135.052838)">
					<path id="_xD83C__xDFA8_-Background" fill="#FFFFFF" d="M214.858,59.888c2.164-1.13,4.276-2.358,6.355-3.636
						c1.465-0.877,0.168-3.084-1.334-2.287c-0.768,0.408-1.532,0.82-2.3,1.227c0.604-0.521,1.164-1.088,1.666-1.705l-0.034-0.035
						c1.936-1.735-0.551-5.01-2.753-3.584c-1.942,1.408-3.901,2.845-6.13,3.771c-4.617,1.959-9.709,2.283-14.664,2.34
						c-1.813-0.137-3.545,0.178-5.305,0.527c0.689-2.768,2.416-4.858,3.332-7.539c0.676-2.707-3.23-4.551-4.615-1.949
						c-0.34,0.639-0.663,1.285-0.98,1.936c-2.991,2.722-7.987,2.482-11.005,5.405c-1.719,1.526-2.56,3.597-2.892,5.675
						c-0.227,1.411,0.125,2.826-0.729,4.076c-4.124,5.835-10.64,15.058-13.949,21.479c-2.342-15.258-8.599-34.132-15.061-48.084
						c-2.138-4.463-4.583-8.823-7.793-12.605c0.364-1.261-0.92-3.5-1.736-2.811c-2.514-3.072-6.957-3.867-10.529-5.394
						c-4.822-2.063-8.823-6.351-10.791-11.225c-2.526-9.281-8.748-10.459-17.375-10.049c-8.258-0.01-14.367,3.522-16.169,11.932
						c-3.66,6.382-12.302,5.327-18.52,7.016c-4.557,1.042-8.979,2.651-13.181,4.695c-4.675-4.437-21.419,14.183-22.941,18.975
						c0.896,0.174,1.787,0.383,2.669,0.637c0.786,0.229,0.456,1.416-0.336,1.226c-0.986-0.237-1.979-0.4-2.977-0.514
						c-0.031,0.095-0.057,0.19-0.077,0.284c-0.112-0.008-0.224-0.018-0.335-0.025c0.248,0.13,0.487,0.279,0.72,0.473
						c0.563,0.469-0.17,1.371-0.768,0.998c-0.563-0.422-1.302-0.355-1.978-0.497c-0.04,1.391-4.999-0.165-5.77-0.626
						c-3.423-0.428-6.946,0.031-10.142-1.62C2.18,37.476-2.105,36.485-6.31,35.345c-1.113,0.434-2.159,1.987-1.275,3.128
						c0.497,0.518-0.142,1.365-0.768,0.996c-2.101-1.236-3.725-3.167-5.102-5.246c-0.648-0.654-1.799-0.514-2.67-0.785
						c-0.116,0.209-0.185,0.442-0.184,0.682c-3.694,0.608-1.059,4.645,0.798,5.902c-0.985,0.641-1.022,1.898-0.936,2.947
						c-0.209,0.373-0.279,0.837-0.097,1.256c0.695,1.602,2.197,2.95,3.339,4.248c1.261,1.432,2.386,2.873,3.921,4.035
						c5.849,4.46,12.908,6.954,20.15,7.93c2.571,0.395,6.27,1,7.862,3.174c-0.391,2.582-1.108,5.058-1.758,7.575
						c-0.91,3.341-0.848,6.839-0.86,10.246c-0.127-0.103-0.371-0.081-0.408,0.113c-0.211,1.412-0.369,2.856-1.227,4.042
						c-0.752,2.207-1.252,4.561-1.534,6.879c-1.126,10.988-1.396,22.302,1.145,33.12c0.98,4.013,2.574,7.827,4.746,11.339
						c0.648,1.048,1.689,1.355,2.624,1.149c3.129,1.626,7.071,2.147,10.443,1.733c11.497-3.256,7.491,4.585,23.611,2.184
						c27.826-3.545,55.947,3.423,83.712-0.668c0.684,5.284,9.637,3.768,12.746,1.534c9.324-6.935,13.953-28.888,18.633-40.025
						c3.217-8.778,8.603-24.326,15.656-30.216c2.115-1.655,4.672-2.527,7.229-3.23c9.547-2.461,19.13-4.788,28.695-7.181
						c1.622-0.399,1.331-3.167-0.403-2.989C219.477,59.452,217.167,59.666,214.858,59.888z"/>
					<path id="_xD83D__xDD8D_-Ink" d="M2.333,58.241c-0.646-0.08-1.28-0.311-1.91-0.492c-0.961-0.281-1.904-0.608-2.831-0.982
						C-4.321,56-6.178,55.092-7.92,53.982c-2.812-1.794-5.296-4.094-7.17-6.862l-0.128-0.192c-1.07-1.631-3.043-5.25-0.831-6.488
						c-1.426-1.191-2.774-3.333-2.698-4.986c0.107-2.337,2.972-2.305,4.453-1.314c0.97,0.649,1.697,1.559,2.426,2.452
						c0.807,0.993,1.669,1.94,2.564,2.851c0.238,0.241,0.478,0.478,0.722,0.71l0.246,0.231c-0.038-0.092-0.072-0.184-0.102-0.279
						c-0.494-1.541,0.095-3.547,1.635-4.252c0.942-0.433,1.921-0.169,2.835,0.198l0.14,0.058c1.229,0.509,2.474,0.959,3.754,1.32
						c5.218,1.473,10.665,1.719,16.012,2.454c2.06,0.285,4.158,0.644,6.207,1.173c0.782-3.32,2.698-6.504,4.777-9.122
						c9.955-12.527,26.373-16.667,41.392-19.347c1.369-0.243,2.503,1.57,3.3,1.141c1.51-0.812,2.839-1.961,4.005-3.21
						c2.487-2.665,4.251-5.799,6.323-8.769c1.025-1.467,3.382-0.154,2.432,1.42l-0.466,0.77c-1.917,3.152-4.041,6.4-6.791,8.845
						c-1.462,1.298-3.084,2.323-4.939,2.963c-1.405,0.484-3.376,0.892-4.914,0.423l-0.185-0.269c0.061,0.09,0.123,0.18,0.185,0.269
						c4.014,5.818,9.05,10.743,14.357,15.391c5.357,4.688,11.136,8.887,16.949,12.992l0.485,0.342
						c9.471-6.911,17.472-15.926,23.085-26.224c-1.177-0.142-2.341-0.896-3.346-1.458c-1.211-0.68-2.35-1.492-3.237-2.574
						c-1.933-2.356-1.682-5.394-2.03-8.253c-0.021-0.177,0.213-0.222,0.321-0.133c1.048,0.871,1.415,2.297,1.853,3.529
						c0.482,1.355,1.027,2.471,2.132,3.424c1.028,0.888,2.284,1.541,3.503,2.122c0.629,0.298,3.75,1.064,4.105,1.699
						c5.391-1.266,10.643,0.921,14.639,4.612c3.859,3.565,6.692,8.2,9.193,12.776c2.669,4.882,4.855,9.971,6.74,15.202
						c1.91,5.31,3.373,10.734,4.179,16.323c0.679,4.711,1.096,9.496,1.366,14.26l0.032,0.596
						c3.989-6.263,8.077-12.459,12.249-18.602c-0.948-2.533,0.102-5.121,1.879-7.078c1.969-2.166,4.691-3.172,7.297-4.343
						l0.342-0.155c1.256-0.572,2.508-1.203,3.592-2.063c1.043-0.828,1.811-1.969,2.909-2.732c1.597-1.111,4.495-0.875,4.569,1.554
						c0.039,1.334-0.534,2.796-1.059,3.994c-0.594,1.355-1.395,2.583-2.345,3.712c-0.044,0.053-0.092,0.094-0.141,0.127
						l-0.036,0.023c1.313,0.217,2.639,0.393,3.988,0.453c2.723,0.125,5.477-0.076,8.143-0.65c2.729-0.588,5.374-1.543,7.829-2.875
						c2.099-1.137,4.042-2.607,6.425-2.954c0.22-0.034,0.441-0.055,0.67-0.067c0.38-0.021,0.76,0.427,0.61,0.803
						c-0.083,0.207-0.169,0.412-0.265,0.619c-0.823,1.816-2.088,3.577-3.664,4.914l-0.121,0.102c0.555-0.192,1.103-0.408,1.641-0.65
						c3.168-1.428,6.041-3.583,9.436-4.449c0.161-0.043,0.324-0.08,0.486-0.116c1.05-0.227,1.604,0.915,0.986,1.696
						c-0.1,0.127-0.198,0.252-0.302,0.377c-1.515,1.881-3.187,3.627-5.028,5.195c-0.632,0.536-1.282,1.057-1.945,1.553
						c-0.279,0.211-0.561,0.417-0.846,0.619l-0.139,0.1c0.331-0.234,0.658-0.473,0.984-0.719c2.078-0.63,4.127-1.376,6.133-2.202
						c0.797-0.327,1.415,0.479,1.5,1.144c0.283,2.224-2.185,3.832-3.791,4.901c-1.609,1.073-3.382,1.89-5.196,2.544
						c-3.489,1.262-7.154,1.835-10.813,2.348l-1.777,0.248c-7.034,0.984-14.382,2.16-19.43,7.637
						c-2.828,3.068-4.742,6.881-6.494,10.633c-1.749,3.747-3.285,7.594-4.742,11.461c-1.512,4.004-2.827,8.08-4.226,12.123
						c-1.284,3.713-2.819,7.378-4.339,11.006l-0.239,0.572c-3.226,7.711-7.079,14.973-12.45,21.41
						c-0.885,1.063-2.315-0.446-1.498-1.499c5.617-7.245,9.526-15.794,12.752-24.322c1.469-3.88,2.698-7.854,4.109-11.755
						l0.84-2.318c1.121-3.09,2.252-6.175,3.432-9.24c1.494-3.879,3.136-7.711,5.014-11.418l0.199-0.39
						c1.839-3.577,4.023-7.101,7.03-9.808c5.412-4.873,12.614-6.043,19.577-6.969l2.19-0.289c2.944-0.391,5.896-0.822,8.759-1.61
						c1.652-0.452,3.266-1.031,4.783-1.83c0.604-0.317,1.193-0.666,1.764-1.046c-1.627,0.478-3.276,0.868-4.956,1.175
						c-0.821,0.149-1.636,0.263-2.446,0.341c-2.09,0.206-4.162,0.197-6.303,0.086c-0.182-0.011-0.24-0.296-0.046-0.332
						c1.49-0.265,2.982-0.596,4.468-0.956l0.446-0.108c0.009-0.248,0.105-0.51,0.308-0.76c0.74-0.899,2.145-1.361,3.119-1.997
						c1.021-0.665,2.009-1.384,2.951-2.153c0.862-0.703,1.69-1.447,2.486-2.226l0.239-0.234c-0.079,0.078-0.159,0.157-0.239,0.234
						c-2.15,0.993-4.189,2.269-6.436,3.054c-1.785,0.628-3.656,1.051-5.545,1.201l-0.117,0.009l-0.117,0.008
						c-1.971,0.142-3.955,0.085-5.896,0.512c-0.218,0.048-0.285-0.243-0.092-0.325c1.697-0.707,3.461-0.979,5.244-1.309
						c0.038-0.14,0.135-0.265,0.305-0.345l0.456-0.218c1.358-0.652,2.625-1.313,3.755-2.371c0.996-0.937,1.826-2.031,2.45-3.244
						c-2.495,0.547-4.687,2.438-6.955,3.502c-2.472,1.16-5.087,1.992-7.774,2.467l-0.307,0.053
						c-5.021,0.838-11.061,0.73-15.56-1.881c-0.144-0.085-0.04-0.277,0.107-0.254c1.276,0.209,2.54,0.456,3.803,0.676
						c-0.247-0.227-0.356-0.632-0.071-0.957c1.135-1.301,2.031-2.788,2.605-4.415l0.109-0.317c0.264-0.756,0.711-1.928,0.256-2.607
						c-0.436-0.649-1.461-0.561-2.073-0.285c-1.274,0.574-2.121,2.01-3.194,2.876c-1.17,0.946-2.502,1.648-3.864,2.276l-0.288,0.131
						c-2.356,1.061-4.875,1.953-6.729,3.825c-0.996,1.007-1.854,2.264-2.142,3.673c-0.131,0.647-0.131,1.313,0.042,1.953
						c0.138,0.501,0.425,0.811,0.26,1.319c-0.215,0.657-0.979,1.443-1.371,2.028c-0.456,0.677-0.91,1.355-1.365,2.033
						c-0.906,1.357-1.808,2.719-2.71,4.077c-1.804,2.723-3.589,5.458-5.36,8.2c-0.576,0.894-1.149,1.788-1.723,2.684l-0.856,1.344
						l-0.452,0.707l-0.773,1.215c0.027,0.113,0.025,0.231-0.01,0.334c-0.133,0.376-0.379,0.633-0.686,0.818l-0.055,0.032
						c-4.508,7.128-8.945,14.304-13.426,21.45c-0.238,2.181-0.463,4.363-0.656,6.547c-0.442,4.941-0.744,9.896-0.842,14.855
						c-0.047,2.402,0.146,4.817,0.25,7.216c0.051,1.146,0.119,2.288,0.21,3.432l0.067,0.811c0.089,1.113,0.139,2.219-0.261,3.28
						c-0.354,0.932-1.437,1.141-2.077,0.432c-8.352-0.337-16.709-0.592-25.066-0.751c-14.96-0.288-29.926-0.243-44.888,0.046
						c-7.515,0.146-15.032,0.352-22.544,0.605c-3.702,0.122-7.405,0.295-11.108,0.346c-1.996,0.027-5.136-0.699-5.297-2.945
						l-0.004-0.068c-0.25,0.068-0.507,0.123-0.771,0.163c-0.118,0.019-0.23,0.013-0.335-0.012l-0.052-0.014
						c-2.975,0.907-6.737-0.388-9.563-1.142l-0.233-0.061c-2.698-0.704-4.866-1.711-6.634-3.946
						c-3.095-3.916-4.151-9.175-4.701-14.021c-0.516-4.562-0.545-9.207,0.082-13.76c-0.37-3.709-0.008-7.536,0.412-11.225
						c0.207-1.824,0.45-3.646,0.742-5.459c0.163-1.013,0.376-2.014,0.594-3.014c0.087-0.4,0.159-0.83,0.269-1.246l0.05-0.177
						c-0.338,0.044-0.708-0.029-1.065-0.226c-0.849-0.467-1.096-1.412-1.111-2.316c-0.046-2.727,0.279-5.531,0.566-8.24
						c0.29-2.706,0.687-5.422,1.207-8.094l0.134-0.688c0.394-1.998,0.844-4.062,1.638-5.938c-2.981-0.508-5.954-1.047-8.846-1.964
						C5.05,59.484,3.66,58.924,2.333,58.241z M157.924,86.615c-0.047,0.011-0.092,0.023-0.136,0.036
						c-1.192,0.334-2.396,0.617-3.596,0.921c-2.075,0.522-4.103,1.105-6.032,2.013c-0.404,5.103-1.003,10.188-1.572,15.275
						l-0.113,1.018c0.875-1.623,1.771-3.233,2.706-4.825C152.032,96.202,154.947,91.39,157.924,86.615z M14.665,87.121
						c0.006,0.605-0.12,1.236-0.188,1.818c-0.11,0.947-0.198,1.898-0.311,2.846c-0.228,1.902-0.422,3.807-0.564,5.717
						c-0.091,1.22-0.15,2.443-0.203,3.667c1.198-4.479,2.784-8.86,4.293-13.247c-0.252-0.027-0.51-0.089-0.776-0.159l-0.448-0.12
						C16.205,87.574,15.349,87.363,14.665,87.121z M161.697,82.951l0.009,0.2c0.031,0.712-0.395,1.114-0.912,1.218
						C161.092,83.895,161.395,83.422,161.697,82.951z M24.626,49.193c1.261,0.112,2.497,0.381,3.676,0.846l0.114,0.045
						c0.872,0.336,2.146,0.76,2.432,1.69c0.081,0.265-0.135,0.481-0.382,0.503c-0.946,0.076-2.062-0.938-2.938-1.281
						c-0.976-0.38-1.999-0.663-3.034-0.813c-2.326-0.341-4.751-0.082-6.94,0.766c-0.129,0.05-0.209-0.155-0.093-0.216
						C19.666,49.531,22.118,48.972,24.626,49.193z M-2.101,55.238c-0.146-0.129-0.292-0.264-0.435-0.399
						c-1.133-1.071-2.136-2.323-2.878-3.698l-0.195-0.371c-0.605-1.172-1.348-2.841,0.074-3.686
						c0.849-0.504,1.872-0.378,2.818-0.071c0.061,0.019,0.123,0.04,0.184,0.062c0.423,0.147,0.831,0.325,1.194,0.494
						c1.578,0.725,2.97,1.779,4.428,2.709c1.58,1.009,3.139,1.653,4.962,2.031l0.172,0.034c1.711,0.339,3.566,0.556,4.76,1.964
						c0.3,0.355,0.025,1.021-0.492,0.845c-3.3-1.113-6.792-1.358-9.822-3.187c-1.255-0.757-2.442-1.625-3.725-2.342
						c-0.681-0.381-1.383-0.714-2.131-0.942l-0.409-0.12c-0.24-0.07-0.526-0.14-0.718-0.07c-0.366,0.127-0.25,0.322-0.136,0.664
						l0.011,0.035c0.89,2.752,3.425,5.056,5.774,6.579c0.539,0.351,1.09,0.673,1.652,0.971c3.804,2.028,8.061,2.972,12.241,4.093
						c1.611,0.45,2.684,0.76,3.218,0.929c0.892-0.074,1.908,0.241,2.58,0.617c0.653,0.365,1.179,0.856,1.576,1.433
						c0,0,0.382,0.319,0.452,0.814c0.201,0.458,0.336,0.952,0.403,1.469c0.038,0.302-0.038,0.534-0.182,0.699
						c0.432,6.635-1.359,13.232-3.379,19.537l-0.2,0.622l-0.128,0.395c-2.178,6.685-4.678,13.321-5.793,20.292
						c-0.746,4.656-0.723,9.475-0.176,14.151l0.039,0.323c0.54,4.422,1.577,9.383,4.388,12.941c1.434,1.816,3.132,2.623,5.304,3.209
						l0.119,0.031c1.965,0.518,3.993,1.251,6.019,1.473c1.88,0.205,3.456-0.494,5.148-1.149l0.002-0.002
						c3.564-3.155,5.183-7.751,6.378-12.388c3.099-12,2.715-24.457,0.957-36.633c-0.917-6.361-2.164-12.668-3.406-18.973
						c-0.621-3.152-1.291-6.297-1.846-9.459l-0.33-1.86c-0.182-1.034-0.358-2.068-0.509-3.108c-0.203-1.396-0.264-2.771-0.334-4.176
						c-1.707-2.83-4.185-5.161-7.056-6.833c-2.056-1.198-4.232-2.028-6.478-2.632c-6.42-1.73-13.42-1.607-19.88-2.939
						c-2.17-0.447-4.23-1.11-6.29-1.904l-0.281-0.109c-0.944-0.368-1.908-0.573-2.377,0.541c-0.333,0.792-0.135,1.616,0.366,2.282
						c1.228,1.632,3.695,2.388,5.552,2.976c1.117,0.355,2.258,0.637,3.412,0.846c1.154,0.209,2.312,0.262,3.418,0.67
						c0.427,0.156,0.511,0.835,0,0.955c-1.403,0.328-2.814,0.047-4.208-0.227c-1.532-0.302-3.04-0.73-4.506-1.273
						c-0.271-0.1-0.55-0.205-0.835-0.317l-0.214-0.085c0.222,0.161,0.443,0.32,0.667,0.479c0.059,0.041,0.023,0.154-0.055,0.126
						c-3.447-1.286-6.584-3.608-9.014-6.354l-0.121-0.138c-0.855-0.981-2.805-3.948-4.449-3.122
						c-1.543,0.775,1.088,3.764,2.087,4.984l0.116,0.144c1.137,0.029,2.237,0.737,3.159,1.308c1.599,0.992,3.271,1.846,4.973,2.645
						c3.384,1.592,6.978,2.714,10.327,4.385c0.044,0.023,0.011,0.08-0.032,0.074c-2.131-0.34-4.24-0.883-6.3-1.557l-0.092-0.029
						l-0.092-0.031c-1.287-0.422-2.556-0.899-3.805-1.409c-1.388-0.566-2.745-1.202-4.061-1.923
						c-1.191-0.651-2.514-1.824-3.896-1.998c-0.148-0.019-0.279-0.021-0.393-0.01c-1.587,0.133-0.275,2.762,0.169,3.549
						c0.725,1.291,1.599,2.482,2.603,3.571c2.035,2.21,4.5,3.963,7.168,5.326C-3.979,54.452-3.048,54.862-2.101,55.238z"/>
				</g>
				<g id="head_x2F_Shaved-2" transform="translate(78.591549, 38.043053)">
					<path id="_xD83C__xDFA8_-Background_1_" fill="#FFFFFF" d="M82.06,32.085c-1.495-5.389-1.281-5.972-3.511-11.119
						c-7.39-14.953-56.775-9.946-61.815,4.98c-2.734,8.098-2.092,19.502-2.804,26.524c-0.218,3.723-0.432,7.446-0.653,11.168
						c-0.077,1.286-0.154,2.571-0.233,3.856c-0.154,2.502-0.303,5.005-0.442,7.508c-0.929,7.711,2.945,8.496,9.59,8.267
						c1.757,4.24,4.602,7.779,8.116,10.659c-0.848,2.308,2.228,3.503,3.887,4.426c9.028,5.042,20.118,8.119,30.118,5.283
						c2.938-0.833,15.072-3.719,18.803-12.652c1.832-4.387,5.557-27.104,0.645-47.539L82.06,32.085z"/>
					<path id="_xD83D__xDD8D_-Ink_1_" d="M50.493-3.064c1.396-0.247,2.958-0.152,3.758,1.22c0.173,0.296,0.283,0.594,0.336,0.888
						c3.815-0.858,7.776-0.951,11.675-0.389c1.162,0.167,1.57,1.716,1.059,2.602c-0.053,0.091-0.105,0.18-0.162,0.267
						c1.221,0.099,2.439,0.311,3.648,0.636c0.859,0.233,1.662,1.347,1.279,2.26c-0.033,0.08-0.069,0.161-0.105,0.241
						c1.899,0.319,3.715,1.065,5.301,2.27c0.19,0.142,0.365,0.325,0.512,0.535c3.547-0.4,7.199,0.334,10.367,2.046
						c0.887,0.479,1.316,1.862,0.713,2.724c-0.188,0.269-0.384,0.524-0.596,0.771c1.378,0.509,2.598,1.333,3.419,2.676
						c0.894,1.456,1.169,3.331,0.688,4.933c1.002,1.021,1.525,2.584,1.168,4.153c-0.324,1.431-1.201,2.339-2.325,2.885
						c0.228,0.698,0.044,1.49-0.474,2.029c-0.795,0.827-1.745,1.46-2.78,1.877c-0.002,0.269-0.069,0.545-0.204,0.803
						c-0.935,1.792-2.947,2.982-4.995,3.162c0.688,2.893,1.255,5.822,1.804,8.735c0.977,5.18,1.732,10.411,2.193,15.663l0.057,0.649
						c0.75,8.887,0.924,18.197-0.883,26.963c-1.151,5.582-4.641,10.287-9.298,13.474c-4.734,3.242-10.519,4.855-16.21,5.11
						c-2.903,0.129-5.833-0.116-8.677-0.712c-1.351-0.283-2.653-0.685-3.937-1.196c-1.379-0.552-2.516-1.365-3.682-2.28
						c-0.607-0.476-0.26-1.598,0.458-1.74c0.513-0.104,1.021-0.215,1.532-0.309c0.469-0.087,0.98,0.383,0.883,0.816l0.988,0.255
						c0.33,0.085,0.66,0.171,0.988,0.259l0.492,0.134c1.401,0.392,2.834,0.721,4.271,0.956c2.924,0.476,5.966,0.486,8.905,0.116
						c4.941-0.619,9.988-2.382,13.831-5.63c1.885-1.593,3.454-3.481,4.593-5.672c1.447-2.784,1.885-5.884,2.248-8.963
						c1.051-8.904,0.727-17.821-0.088-26.728c-0.406-4.43-0.96-8.851-1.547-13.262c-0.303-2.261-0.628-4.527-0.896-6.797
						c-0.598-0.161-1.168-0.427-1.68-0.814c-0.346-0.262-0.549-0.566-0.638-0.877c-0.517-0.098-1.011-0.381-1.367-0.86l-0.046-0.064
						c-0.936-1.354-2.555-2.13-4.053-2.694c-0.908-0.343-1.833-0.641-2.754-0.945c-0.959-0.319-1.974-0.791-2.981-0.913
						c-1.144-0.135-2.294,0.209-3.448,0.086c-1.047-0.114-1.971-0.49-2.725-1.243c-0.264-0.262-0.492-0.564-0.674-0.89
						c-3.518,0.752-7.213-0.196-10.868,0.032c-2.404,0.152-4.525,1.64-6.955,1.6c-0.663-0.011-1.306-0.243-1.772-0.651
						c-2.292,0.438-4.623,1.278-6.777,2.001c-2.129,0.715-4.179,1.676-6.283,2.456c-0.002,0.002-0.002,0.002-0.002,0.004
						c-0.275,0.89-1.094,1.274-1.967,1.118c-2.854-0.509-5.259-2.311-8.037-2.97c-0.765,2.788-1.587,5.54-2.148,8.382
						c-0.569,2.868-0.968,5.774-1.232,8.687c-0.266,2.923-0.393,5.875-0.399,8.809c-0.002,1.496,0.036,2.997,0.086,4.493
						c0.042,1.253,0.28,2.838-0.173,4.044l-0.041,0.103h-0.002c-0.055,0.176-0.302,0.281-0.441,0.119
						c-0.852-0.989-1.054-2.563-1.291-3.807c-0.287-1.509-0.471-3.033-0.619-4.561c-0.296-3.067-0.361-6.121-0.205-9.2
						c0.306-6.062,1.278-12.464,3.353-18.193c-0.638,0.059-0.923-0.881-0.965-1.412c-0.081-1.066,0.086-2.197,0.267-3.267
						l0.189-1.107c0.18-1.045,0.369-2.063,0.725-3.079c0.854-2.439,2.081-4.73,3.61-6.812c3.121-4.246,7.445-7.461,12.37-9.314
						c0.309-0.116,0.6-0.114,0.858-0.026c4.481-2.416,9.298-4.275,14.191-5.598C47.419-2.404,48.951-2.788,50.493-3.064z
						 M13.281,65.082c2.034-1.276,6.232-1.61,7.367,1.11c0.046,0.109-0.084,0.207-0.182,0.182l-0.277-0.07
						c-1.067-0.264-1.988-0.416-3.082,0.022c-0.961,0.384-1.896,0.987-2.531,1.815c-1.503,1.959-1.666,4.621-1.526,6.998
						l0.007,0.115c0.131,2.086,0.666,4.626,2.704,5.658c1.033,0.522,2.151,0.484,3.273,0.476c1.278-0.009,2.583,0.131,3.805,0.524
						c0.683,0.219,1.003,1.124,0.438,1.655c-0.188,0.175-0.385,0.34-0.592,0.488c0.619,0.66,1.228,1.328,1.817,2.031
						c1,1.194,2.062,2.348,3.171,3.441c1.073,1.055,2.209,2.075,3.435,2.95c1.289,0.917,2.831,1.562,3.946,2.687
						c0.727,0.731,0.602,1.752,0,2.492c-1.495,1.838-4.039-0.094-5.468-1.181l-0.173-0.131c-1.485-1.125-2.896-2.337-4.099-3.766
						c-1.226-1.458-2.286-3.01-3.07-4.749c-0.46-1.023-0.754-1.989-0.913-2.999c-2.569,1.116-5.808,0.761-8.11-0.81
						c-3.057-2.084-3.915-5.909-3.926-9.401l0-0.207C9.319,71.016,10.21,67.009,13.281,65.082z M19.076,70.002l0.094,0.001
						c1.131,0.024,2.14,0.432,3.101,0.994l0.1,0.059c0.934,0.556,2.273,1.002,2.768,2.042c0.296,0.627,0.274,1.346-0.241,1.866
						c-0.934,0.943-2.343,0.787-3.353,0.051c-0.754-0.551-1.251-1.378-1.99-1.936c-1.39-1.052-3.583-0.993-5.03-0.082
						c-0.089,0.057-0.176-0.051-0.136-0.135C15.278,71.041,17.039,69.995,19.076,70.002L19.076,70.002z"/>
				</g>
				<g id="face_x2F_Eyes-Closed" transform="translate(112.183099, 77.354207)">
					<path id="_xD83D__xDD8D_-Ink_2_" d="M38.502,47.758l0.146-0.034c1.166-0.275,2.289-0.65,3.377,0.074
						c1.035,0.689,1.18,1.964,0.373,2.894c-0.83,0.956-1.932,0.903-3.095,0.916l-0.073,0c-0.965,0.014-1.947-0.001-2.909-0.086
						c-0.896-0.08-1.799-0.208-2.686-0.375l-0.524-0.103c-0.535-0.108-1.063-0.25-1.339-0.768c-0.481-0.904,3.096-1.613,3.53-1.737
						C36.358,48.238,37.432,48,38.502,47.758z M40.486,36.858c-0.569,0.592-1.323,0.996-2.169,1.248
						c-2.125,0.632-4.836,0.295-6.572-0.349c-0.359-0.133-0.695-0.406-0.889-0.747c-0.178-0.311-0.237-0.677-0.103-1.05
						c0.038-0.106,0.085-0.21,0.132-0.313c0.127-0.279,0.387-0.496,0.691-0.62c0.316-0.129,0.676-0.155,0.965-0.064
						c0.039,0.012,0.078,0.025,0.119,0.038c1.1,0.347,2.903,0.921,4.398,0.81c0.896-0.066,1.685-0.383,2.093-1.204
						c0.215-0.433,0.155-0.861-0.036-1.253c-0.287-0.591-0.863-1.105-1.348-1.459c-0.684-0.5-1.413-0.699-2.168-0.91
						c-0.284-0.079-0.572-0.16-0.862-0.256c-0.096-0.032-0.18-0.094-0.243-0.175c-0.062-0.08-0.103-0.177-0.115-0.274
						c-0.014-0.102,0.003-0.202,0.05-0.29c0.044-0.081,0.113-0.151,0.218-0.198c1.476-0.662,3.385-0.225,4.825,0.816
						c0.72,0.52,1.321,1.188,1.69,1.935c0.344,0.693,0.49,1.453,0.355,2.229C41.368,35.639,41,36.325,40.486,36.858z M16.296,22.098
						c0.415-0.183,0.755,0.673,0.841,0.906l0.177,0.484c0.288,0.78,0.618,1.574,1.224,2.153c0.507,0.485,1.318,0.896,1.907,0.329
						c0.558-0.538,0.286-1.145,0.368-1.805c0.148-1.194,1.776-2.388,2.756-1.142c2.211,2.817-1.211,6.733-4.362,6.046
						c-1.603-0.35-2.894-1.635-3.423-3.164l-0.027-0.081C15.438,24.856,15.118,22.618,16.296,22.098z M44.834,24.059l-0.015-0.036
						c-1.054-2.397,2.704-3.427,3.022-1.275l0.021,0.146c0.31,2.389-0.343,5.602-3.269,5.84c-3.283,0.268-4.65-3.397-4.357-6.087
						c0.053-0.481,0.637-0.548,0.817-0.111l0.038,0.096c0.53,1.352,1.033,3.951,2.902,3.948
						C45.243,26.578,45.182,24.893,44.834,24.059L44.834,24.059z M47.217,17.12c1.888-0.067,1.885,2.888,0,2.933
						c-6.296,0.148-12.598,0.345-18.895,0.379l-1.146,0.007c-5.915,0.04-11.853,0.121-17.751-0.376
						c-0.503-0.042-0.409-0.75,0.012-0.721c6.184-0.88,12.443-1.138,18.674-1.472C34.475,17.528,40.85,17.346,47.217,17.12z"/>
				</g>
				<g id="facial-hair_x2F__x2A_-None" transform="translate(104.577451, 109.479380)">
				</g>
				<g id="accessories_x2F_Eyepatch" transform="translate(88.521127, 88.978474)">
					<path id="_xD83D__xDD8D_-Ink_3_" d="M70.858-12.599c1.222-0.419,2.195,0.852,1.961,1.959c-0.276,1.304-1.637,2.351-2.539,3.27
						c-0.947,0.968-1.912,1.917-2.914,2.83c-1.912,1.746-3.893,3.39-5.982,4.922L60.745,0.85c-1.916,1.402-3.825,2.771-5.877,3.985
						c-1.111,0.655-2.232,1.289-3.369,1.9c-0.406,0.218-0.9,0.554-1.41,0.803c1.861,1.438,3.294,3.631,3.604,5.675
						c0.769,5.077-2.501,9.781-7.116,11.652c-2.3,0.932-4.86,1.203-7.319,0.921c-2.501-0.286-5.036-1.025-6.661-3.075
						c-1.443-1.82-1.963-4.142-2.066-6.423c-0.049-1.082-0.038-2.147,0.19-3.104c-0.995,0.008-1.99,0.004-2.977,0.015
						c-2.438,0.023-4.88,0.034-7.32-0.034c-2.517-0.072-5.02-0.184-7.528-0.407c-1.101-0.1-2.195-0.263-3.29-0.419
						c-1.063-0.15-2.235-0.207-3.228-0.643c-0.067-0.027-0.039-0.125,0.019-0.144c1.059-0.342,2.261-0.281,3.363-0.349l1.075-0.065
						c0.895-0.054,1.79-0.103,2.688-0.131c2.074-0.068,4.147-0.085,6.221-0.121l0.889-0.017c2.44-0.049,4.88-0.076,7.32-0.154
						c1.012-0.032,2.026-0.091,3.042-0.146c0.118-0.269,0.292-0.514,0.458-0.752c0.499-0.714,1.132-1.344,1.79-1.915
						c1.346-1.175,2.86-2.048,4.551-2.634c1.674-0.578,4.124-0.865,5.896-0.828c1.771,0.038,4.297,0.288,5.107,1.737
						c0.085,0.15,1.629-0.14,2.088-0.491c1.071-0.818,2.123-1.659,3.156-2.521c1.918-1.604,3.892-3.183,5.709-4.899
						c1.873-1.771,3.732-3.572,5.516-5.432c0.896-0.932,1.789-1.866,2.658-2.821C68.811-10.961,69.575-12.162,70.858-12.599z"/>
				</g>
			</g>
		</g>
	</g>
</g>
</svg>
